# AST/ASF file generated using VICON BodyLanguage
# -----------------------------------------------
:version 1.10
:name VICON
:units
  mass 1.0
  length 0.45
  angle deg
:documentation
   .ast/.asf automatically generated from VICON data using
   VICON BodyBuilder and BodyLanguage model FoxedUp or BRILLIANT.MOD
:root
   order TX TY TZ RX RY RZ
   axis XYZ
   position 0 0 0  
   orientation 0 0 0 
:bonedata
  begin
     id 1 
     name lhipjoint
     direction 0.537252 -0.787203 0.302774 
     length 2.29576 
     axis 0 0 0  XYZ
  end
  begin
     id 2 
     name lfemur
     direction 0.34202 -0.939693 0  
     length 7.31114  
     axis 0 0 20  XYZ
    dof rx ry rz
    limits (-160.0 20.0)
           (-70.0 70.0)
           (-60.0 70.0)
  end
  begin
     id 3 
     name ltibia
     direction 0.34202 -0.939693 0   
     length 8.36008   
     axis 0 0 20   XYZ
    dof rx
    limits (-10.0 170.0)
  end
  begin
     id 4 
     name lfoot
     direction 0.0969116 -0.266263 0.959016   
     length 2.16704   
     axis -90 7.62852e-016 20   XYZ
    dof rx rz
    limits (-45.0 90.0)
           (-70.0 20.0)
  end
  begin
     id 5 
     name ltoes
     direction 1.53563e-011 -4.21779e-011 1   
     length 1.08338   
     axis -90 7.62852e-016 20   XYZ
    dof rx
    limits (-90.0 20.0)
  end
  begin
     id 6 
     name rhipjoint
     direction -0.588228 -0.754791 0.290308   
     length 2.39434  
     axis 0 0 0  XYZ 
  end
  begin
     id 7 
     name rfemur
     direction -0.34202 -0.939693 0   
     length 7.45207   
     axis 0 0 -20   XYZ
    dof rx ry rz
    limits (-160.0 20.0)
           (-70.0 70.0)
           (-70.0 60.0)
  end
  begin
     id 8 
     name rtibia
     direction -0.34202 -0.939693 0   
     length 8.03565   
     axis 0 0 -20   XYZ
    dof rx
    limits (-10.0 170.0)
 end
 begin
     id 9 
     name rfoot
     direction -0.107009 -0.294004 0.949795   
     length 2.11509  
     axis -90 -7.62852e-016 -20   XYZ
    dof rx rz
    limits (-45.0 90.0)
           (-20.0 70.0)
  end
  begin
     id 10 
     name rtoes
     direction -1.53533e-011 -4.22004e-011 1   
     length 1.05493   
     axis -90 -7.62852e-016 -20   XYZ
    dof rx
    limits (-90.0 20.0)
  end
  begin
     id 11 
     name lowerback
     direction -0.0115208 0.997969 -0.0626515   
     length 2.03153   
     axis 0 0 0   XYZ
    dof rx ry rz
    limits (-20.0 45.0)
           (-30.0 30.0)
           (-30.0 30.0)
  end
  begin
     id 12 
     name upperback
     direction -0.00423475 0.999974 -0.00583614   
     length 2.03619   
     axis 0 0 0   XYZ
    dof rx ry rz
    limits (-20.0 45.0)
           (-30.0 30.0)
           (-30.0 30.0)
  end
  begin
     id 13 
     name thorax
     direction 0.00289429 0.999728 0.0231573   
     length 2.03921   
     axis 0 0 0   XYZ
    dof rx ry rz
    limits (-20.0 45.0)
           (-30.0 30.0)
           (-30.0 30.0)
  end
  begin
     id 14 
     name lowerneck
     direction 0.0188995 0.987777 0.154721   
     length 1.78836   
     axis 0 0 0   XYZ
    dof rx ry rz
    limits (-20.0 45.0)
           (-30.0 30.0)
           (-30.0 30.0)
  end
  begin
     id 15 
     name upperneck
     direction -0.00612612 0.992995 -0.118   
     length 1.81789   
     axis 0 0 0   XYZ
    dof rx ry rz
    limits (-20.0 45.0)
           (-30.0 30.0)
           (-30.0 30.0)
  end
  begin
     id 16
     name head
     direction -0.00420226 0.998397 -0.0564482  
     length 1.82234  
     axis 0 0 0   XYZ
    dof rx ry rz
    limits (-20.0 45.0)
           (-30.0 30.0)
           (-30.0 30.0)
  end
  begin
     id 17 
     name lclavicle
     direction 0.916488 0.396539 0.0529676  
     length 3.51732  
     axis 0 0 0   XYZ
    dof ry rz
    limits (-20.0 10.0)
           (0.0 20.0)
  end
  begin
     id 18 
     name lhumerus
     direction 1 -4.4896e-011 8.36962e-028   
     length 5.45077   
     axis 180 -30 -90   XYZ
    dof rx ry rz
    limits (-60.0 90.0)
           (-90.0 90.0)
           (-90.0 90.0)
  end
  begin
     id 19
     name lradius
     direction 1 -4.48962e-011 3.01407e-027   
     length 3.05488   
     axis 180 -30 -90   XYZ
    dof rx
    limits (-10.0 170.0)
  end
  begin
     id 20
     name lwrist
     direction 1 -4.49002e-011 4.72961e-027   
     length 1.52744   
     axis -2.72261e-015 90 90   XYZ
    dof ry
    limits (-180.0 0.0)
 end
  begin
     id 21 
     name lhand
     direction 1 -4.4899e-011 9.45681e-027   
     length 0.638818   
     axis -6.0311e-015 90 90   XYZ
    dof rx rz
    limits (-90.0 90.0)
           (-45.0 45.0)
  end
  begin
     id 22 
     name lfingers
     direction 1 -4.48871e-011 1.88632e-026   
     length 0.515032   
     axis -1.20625e-014 90 90   XYZ
    dof rx
    limits (0.0 90.0)
  end
  begin
     id 23
     name lthumb
     direction 0.707107 -6.34964e-011 0.707107   
     length 0.739485   
     axis -90 45 6.32835e-014   XYZ
    dof rx rz
    limits (-45.0 45.0)
           (-45.0 45.0)
  end
  begin
     id 24 
     name rclavicle
     direction -0.949427 0.303202 0.0815894   
     length 3.76167  
     axis 0 0 0   XYZ 
    dof ry rz
    limits (-10.0 20.0)
           (-20.0 0.0)
  end
  begin
     id 25 
     name rhumerus
     direction -1 -4.48971e-011 -6.43969e-018  
     length 4.88702   
     axis 180 30 90   XYZ
    dof rx ry rz
    limits (-90.0 60.0)
           (-90.0 90.0)
           (-90.0 90.0)
  end
  begin
     id 26 
     name rradius
     direction -1 -4.48987e-011 5.46662e-027   
     length 3.22603   
     axis 180 30 90   XYZ
    dof rx
    limits (-10.0 170.0)
  end
  begin
     id 27 
     name rwrist
     direction -1 -4.48956e-011 4.72476e-027   
     length 1.61302   
     axis -2.72261e-015 -90 -90   XYZ
    dof ry
    limits (-180.0 0.0)
  end
  begin
     id 28
     name rhand
     direction -1 -4.4889e-011 9.43571e-027   
     length 0.716293   
     axis -6.0311e-015 -90 -90   XYZ
    dof rx rz
    limits (-90.0 90.0)
           (-45.0 45.0)
  end
  begin
     id 29
     name rfingers
     direction -1 -4.48887e-011 1.88701e-026   
     length 0.577494   
     axis -1.20625e-014 -90 -90   XYZ
    dof rx
    limits (0.0 90.0)
  end
  begin
     id 30
     name rthumb
     direction -0.707107 -6.34825e-011 0.707107   
     length 0.829169   
     axis -90 -45 -6.32835e-014   XYZ
    dof rx rz
    limits (-45.0 45.0)
           (-45.0 45.0)
  end
:hierarchy
  begin
    root lhipjoint rhipjoint lowerback
    lhipjoint lfemur
    lfemur ltibia
    ltibia lfoot
    lfoot ltoes
    rhipjoint rfemur
    rfemur rtibia
    rtibia rfoot
    rfoot rtoes
    lowerback upperback
    upperback thorax
    thorax lowerneck lclavicle rclavicle
    lowerneck upperneck
    upperneck head
    lclavicle lhumerus
    lhumerus lradius
    lradius lwrist
    lwrist lhand lthumb
    lhand lfingers
    rclavicle rhumerus
    rhumerus rradius
    rradius rwrist
    rwrist rhand rthumb
    rhand rfingers
  end

#!OML:ASF F:\VICON\USERDATA\INSTALL\rory3\rory3.ASF
:FULLY-SPECIFIED
:DEGREES
523
root 1.12616 18.5052 0.526377 102.643 85.9406 94.6531
lowerback -8.32632 -0.102574 -0.844219
upperback -1.55723 0.0365021 -1.43567
thorax 3.0564 0.0364883 -1.00392
lowerneck -9.98257 10.2996 12.0892
upperneck 34.9588 17.6324 -8.4973
head 16.0081 8.63423 -2.42347
rclavicle 1.67414e-015 -6.4605e-015
rhumerus -32.9026 8.56504 -90.4737
rradius 66.0464
rwrist -44.4306
rhand -5.70003 0.459046
rfingers 7.12502
rthumb 20.1207 -28.519
lclavicle 1.67414e-015 -6.4605e-015
lhumerus -34.33 -17.6455 89.675
lradius 70.347
lwrist 65.0653
lhand -3.03269 37.4238
lfingers 7.12502
lthumb 22.6826 66.1108
rfemur -8.45886 -3.89296 12.6311
rtibia 11.4118
rfoot -11.3893 0.202287
rtoes -10.4839
lfemur -9.44716 11.3184 -21.8771
ltibia 13.6111
lfoot -11.9692 6.17796
ltoes -25.0607
524
root 1.12324 18.5062 0.522972 102.143 85.8246 94.107
lowerback -8.3913 -0.113865 -0.978918
upperback -1.55703 0.0356668 -1.44421
thorax 3.09272 0.0351446 -0.937273
lowerneck -9.93295 10.3207 12.0765
upperneck 34.8971 17.685 -8.55492
head 15.9798 8.6506 -2.43781
rclavicle 6.27414e-016 4.57205e-015
rhumerus -32.9091 8.63441 -90.447
rradius 66.021
rwrist -44.4349
rhand -6.01348 0.663346
rfingers 7.12502
rthumb 19.8194 -28.3461
lclavicle 6.27414e-016 4.57205e-015
lhumerus -34.2441 -17.1112 89.4591
lradius 70.1125
lwrist 65.5078
lhand -2.07502 37.41
lfingers 7.12502
lthumb 23.6014 65.9815
rfemur -8.57144 -3.93885 12.4842
rtibia 11.5012
rfoot -11.4135 0.237909
rtoes -10.6779
lfemur -9.47329 11.3629 -22.0403
ltibia 13.552
lfoot -11.915 6.14003
ltoes -25.2865
525
root 1.12111 18.505 0.518509 102.071 85.6998 94.0312
lowerback -8.41125 -0.1288 -1.07421
upperback -1.54354 0.0265951 -1.47922
thorax 3.11772 0.0300125 -0.92099
lowerneck -9.92215 10.3565 12.0918
upperneck 34.8537 17.7453 -8.59594
head 15.9723 8.67285 -2.44527
rclavicle -6.36732e-016 -7.15625e-015
rhumerus -32.8952 8.47753 -90.4025
rradius 65.9258
rwrist -44.0265
rhand -5.79143 0.829566
rfingers 7.12502
rthumb 20.0328 -28.1577
lclavicle -6.36732e-016 -7.15625e-015
lhumerus -34.4566 -17.481 89.8654
lradius 70.1989
lwrist 63.2338
lhand -3.15089 36.8464
lfingers 7.12502
lthumb 22.5691 65.5472
rfemur -8.62452 -4.08224 12.3392
rtibia 11.5899
rfoot -11.4151 0.346264
rtoes -10.8539
lfemur -9.45696 11.3261 -22.1936
ltibia 13.505
lfoot -11.9189 6.1692
ltoes -25.1703
526
root 1.11838 18.5067 0.515667 101.38 85.7079 93.2921
lowerback -8.44838 -0.110785 -1.04562
upperback -1.56249 0.0497491 -1.49598
thorax 3.11898 0.0421759 -0.951918
lowerneck -9.89217 10.3687 12.0929
upperneck 34.81 17.7615 -8.60651
head 15.9472 8.67969 -2.44848
rclavicle 1.89467e-016 2.78299e-015
rhumerus -32.9534 8.32438 -90.3894
rradius 65.8618
rwrist -43.493
rhand -5.82034 0.89579
rfingers 7.12502
rthumb 20.0051 -28.0944
lclavicle 1.89467e-016 2.78299e-015
lhumerus -34.5368 -17.5371 89.9775
lradius 70.1936
lwrist 62.1461
lhand -3.89607 36.7168
lfingers 7.12502
lthumb 21.8538 65.5028
rfemur -8.73607 -4.1057 12.3267
rtibia 11.667
rfoot -11.4523 0.485919
rtoes -10.5731
lfemur -9.47789 11.4401 -22.22
ltibia 13.4573
lfoot -11.8663 6.14448
ltoes -25.305
527
root 1.11412 18.5067 0.51321 100.482 85.713 92.3768
lowerback -8.43576 -0.132596 -1.0746
upperback -1.5761 0.0220035 -1.4727
thorax 3.09761 0.0280727 -0.91449
lowerneck -9.89077 10.4082 12.0794
upperneck 34.8024 17.8417 -8.64591
head 15.9594 8.70664 -2.44595
rclavicle -3.52532e-015 1.49089e-015
rhumerus -33.0058 8.48089 -90.4231
rradius 65.8776
rwrist -43.4177
rhand -6.15773 0.936717
rfingers 7.12502
rthumb 19.6807 -28.087
lclavicle -3.52532e-015 1.49089e-015
lhumerus -34.5165 -17.3063 89.984
lradius 70.0424
lwrist 61.4054
lhand -3.99666 36.5005
lfingers 7.12502
lthumb 21.7572 65.2977
rfemur -8.81423 -4.05937 12.3159
rtibia 11.7121
rfoot -11.4688 0.495721
rtoes -10.5601
lfemur -9.49608 11.5856 -22.2434
ltibia 13.4292
lfoot -11.8594 6.08832
ltoes -25.0549
528
root 1.11027 18.5072 0.510979 99.6083 85.7242 91.5457
lowerback -8.35579 -0.127193 -1.07415
upperback -1.58324 0.0266243 -1.46376
thorax 3.04576 0.030264 -0.904724
lowerneck -9.93246 10.461 11.9434
upperneck 34.8537 17.8855 -8.45838
head 15.9578 8.72645 -2.33454
rclavicle -6.4605e-016 -1.95803e-014
rhumerus -33.0682 8.4869 -90.4206
rradius 65.8519
rwrist -43.1741
rhand -6.39475 1.13628
rfingers 7.12502
rthumb 19.4528 -27.9106
lclavicle -6.4605e-016 -1.95803e-014
lhumerus -34.5558 -17.1339 89.975
lradius 69.9702
lwrist 60.8198
lhand -3.71593 36.3151
lfingers 7.12502
lthumb 22.0267 65.0808
rfemur -8.82864 -4.01061 12.3081
rtibia 11.7859
rfoot -11.4999 0.516058
rtoes -10.7129
lfemur -9.43915 11.636 -22.2397
ltibia 13.3815
lfoot -11.8618 6.117
ltoes -25.1307
529
root 1.10708 18.5073 0.509736 98.342 85.6691 90.2518
lowerback -8.35035 -0.108673 -1.13373
upperback -1.61031 0.0579502 -1.49339
thorax 3.01498 0.0459416 -0.898372
lowerneck -10.02 10.5252 11.7421
upperneck 34.9419 17.8946 -8.10778
head 15.9489 8.73919 -2.14971
rclavicle 1.52195e-016 6.95746e-015
rhumerus -33.1482 8.36649 -90.4199
rradius 65.8194
rwrist -42.7229
rhand -6.7219 1.20275
rfingers 7.12502
rthumb 19.1383 -27.8756
lclavicle 1.52195e-016 6.95746e-015
lhumerus -34.6126 -16.9261 89.902
lradius 69.8842
lwrist 60.3508
lhand -3.2979 36.1385
lfingers 7.12502
lthumb 22.428 64.8563
rfemur -8.92455 -4.02735 12.234
rtibia 11.8624
rfoot -11.4712 0.611268
rtoes -10.7071
lfemur -9.44714 11.7416 -22.3245
ltibia 13.3269
lfoot -11.8275 6.10106
ltoes -25.38
